<?xml version="1.0" encoding="UTF-8" standalone="no"?>
<svg
   xmlns:dc="http://purl.org/dc/elements/1.1/"
   xmlns:cc="http://creativecommons.org/ns#"
   xmlns:rdf="http://www.w3.org/1999/02/22-rdf-syntax-ns#"
   xmlns:svg="http://www.w3.org/2000/svg"
   xmlns="http://www.w3.org/2000/svg"
   xmlns:sodipodi="http://sodipodi.sourceforge.net/DTD/sodipodi-0.dtd"
   xmlns:inkscape="http://www.inkscape.org/namespaces/inkscape"
   sodipodi:docname="logo_simplify_step_by_step.svg"
   inkscape:version="1.0 (4035a4fb49, 2020-05-01)"
   id="svg864"
   version="1.1"
   viewBox="0 0 210 297"
   height="297mm"
   width="210mm">
  <defs
     id="defs858" />
  <sodipodi:namedview
     inkscape:window-maximized="0"
     inkscape:window-y="0"
     inkscape:window-x="26"
     inkscape:window-height="1040"
     inkscape:window-width="1577"
     showgrid="false"
     inkscape:document-rotation="0"
     inkscape:current-layer="layer1"
     inkscape:document-units="mm"
     inkscape:cy="560"
     inkscape:cx="400"
     inkscape:zoom="0.35"
     inkscape:pageshadow="2"
     inkscape:pageopacity="0.0"
     borderopacity="1.0"
     bordercolor="#666666"
     pagecolor="#ffffff"
     id="base" />
  <metadata
     id="metadata861">
    <rdf:RDF>
      <cc:Work
         rdf:about="">
        <dc:format>image/svg+xml</dc:format>
        <dc:type
           rdf:resource="http://purl.org/dc/dcmitype/StillImage" />
        <dc:title></dc:title>
      </cc:Work>
    </rdf:RDF>
  </metadata>
  <g
     id="layer1"
     inkscape:groupmode="layer"
     inkscape:label="Calque 1">
    <path
       style="fill:#000000;stroke-width:0.264583"
       d="m 131.59448,206.52731 c -0.0643,-0.0643 -0.88783,-0.24044 -1.83004,-0.39139 -1.98926,-0.3187 -3.28933,-0.85825 -10.10431,-4.19352 l -5.01203,-2.4529 -3.9857,-3.8971 c -3.56329,-3.48409 -4.08302,-4.10742 -4.90399,-5.88148 -0.50506,-1.09141 -1.25922,-3.23454 -1.67592,-4.7625 -0.74966,-2.74884 -0.75764,-2.85623 -0.75738,-10.18646 2.5e-4,-7.33194 0.007,-7.42471 0.67002,-8.99584 0.36836,-0.87312 0.8953,-2.42093 1.17096,-3.43958 1.08685,-4.01608 2.62076,-7.22765 5.53875,-11.59666 1.27054,-1.90233 2.16578,-3.24804 3.08299,-4.63428 1.77834,-2.68773 10.58628,-12.55031 12.17665,-13.63464 1.10928,-0.75631 3.25684,-2.41887 4.99742,-3.86879 3.10752,-2.58861 6.09801,-4.59903 7.51956,-5.05518 0.52084,-0.16712 1.65123,-0.59614 2.512,-0.95337 0.86075,-0.35723 2.2895,-0.76351 3.175,-0.90285 0.88548,-0.13934 2.622,-0.56221 3.85894,-0.93971 1.23693,-0.37751 3.08239,-0.78759 4.10103,-0.9113 1.01866,-0.1237 2.71263,-0.37566 3.76441,-0.5599 l 1.91233,-0.33499 -1.43323,-2.51354 c -2.87727,-5.04606 -2.62894,-4.6379 -4.84431,-7.96204 -0.33043,-0.49582 -0.67348,-1.19915 -0.76232,-1.56296 -0.0888,-0.3638 -0.3735,-0.89958 -0.63258,-1.19062 -0.2591,-0.29104 -1.06596,-1.62821 -1.79304,-2.97148 -0.72708,-1.34327 -1.5774,-2.772025 -1.88962,-3.175005 -0.72577,-0.93678 -5.33738,-7.84908 -6.29504,-9.43556 -0.2541,-0.42096 -1.00253,-1.43299 -1.66318,-2.24896 -0.66065,-0.81597 -1.76957,-2.34445 -2.46427,-3.39662 -0.6947,-1.05218 -1.3632,-1.97491 -1.48555,-2.05053 -0.12236,-0.0756 -0.59041,-0.78946 -1.04013,-1.58632 -0.44971,-0.79685 -1.56739,-2.25536 -2.48373,-3.24113 -0.91633,-0.98578 -1.88568,-2.14035 -2.15411,-2.56573 -0.92526,-1.46623 -4.17816,-5.4443 -4.45184,-5.4443 -0.15086,0 -1.83456,-1.52933 -3.74153,-3.39852 -4.3864,-4.29945 -5.93301,-5.69606 -6.8178,-6.15657 -0.38759,-0.20173 -1.9836,-1.43834 -3.5467,-2.74803 -1.56308,-1.30969 -3.56768,-2.83636 -4.45466,-3.3926 -0.88698,-0.55624 -1.98759,-1.37159 -2.4458,-1.81188 l -0.83312,-0.80054 -0.11653,8.82334 c -0.11399,8.63207 -0.17784,9.37024 -1.14599,13.25112 -0.20819,0.83455 -0.37648,1.78705 -0.374,2.11667 0.006,0.85491 -2.257019,8.11568 -3.403629,10.91806 -0.29771,0.7276 -0.7962,2.03729 -1.10776,2.91041 -1.10824,3.10577 -7.69679,15.948775 -10.51931,20.505215 -1.57752,2.54662 -3.31242,5.55526 -3.85532,6.68588 -0.54291,1.13062 -1.50103,2.63432 -2.12915,3.34155 -0.62811,0.70723 -1.89748,2.28249 -2.8208,3.50058 -0.92332,1.21808 -4.12452,4.66047 -7.11377,7.64975 -6.25607,6.25615 -13.77903,14.12126 -14.16624,14.81055 -0.14552,0.25905 -5.08662,5.19811 -10.98021,10.9757 -10.08226,9.88379 -14.56876,13.9523 -17.24428,15.63767 -1.55622,0.9803 -7.27714,5.27195 -8.4203,6.31663 -0.50933,0.46545 -1.75948,1.36018 -2.77813,1.9883 -1.01864,0.62812 -2.50693,1.64323 -3.30729,2.2558 -0.80036,0.61257 -2.40771,1.61366 -3.57188,2.22464 -3.05588,1.60379 -4.52852,2.47997 -5.21608,3.10343 -0.33261,0.3016 -1.48136,1.00298 -2.55278,1.55863 -1.07142005,0.55564 -2.48020005,1.45001 -3.13061,1.98748 -0.65042,0.53748 -2.02783,1.43842 -3.06091,2.00209 -1.03308,0.56367 -2.54134,1.53912 -3.35168,2.16766 -0.81035,0.62854 -3.97366,2.41374 -7.0296,3.9671 l -5.55625,2.82431 -2.38125,-2.5e-4 c -1.93576,-2.1e-4 -2.57925,-0.10708 -3.43958,-0.57125 -1.26568,-0.68286 -2.81163,-2.2574 -3.43942,-3.50301 -0.69952,-1.38796 -0.81169,-3.66822 -0.26187,-5.32359 0.80213,-2.41499 1.96703,-3.3806 7.09514,-5.8813 2.49999,-1.2191 5.19987,-2.67837 5.99974,-3.24282 2.53875,-1.79152 4.33107,-2.94614 5.48186,-3.53144 0.61442,-0.31249 1.51529,-0.91777 2.00194,-1.34505 0.48665,-0.42729 1.82941,-1.28204 2.98392,-1.89945 1.1545,-0.61741 2.53355,-1.48747 3.06454,-1.93347 0.53099,-0.44601 2.31692995,-1.51616 3.96874995,-2.37813 1.65182005,-0.86197 3.65816005,-2.06391 4.45852005,-2.67099 0.80036,-0.60707 2.28865,-1.61769 3.30729,-2.2458 1.01865,-0.62812 2.2688,-1.52286 2.77813,-1.98831 1.15873,-1.05891 6.87257,-5.34165 8.46504,-6.34487 1.42184,-0.89572 3.56182,-2.68143 5.5701,-4.64796 0.80708,-0.79032 2.51103,-2.32991 3.78654,-3.42131 2.68114,-2.29416 20.33814,-20.21796 23.18485,-23.53518 1.05547,-1.22993 4.04718,-4.36096 6.64825,-6.95785 6.01033,-6.00069 8.73519,-9.33667 10.81382,-13.23914 0.44854,-0.84212 2.01703,-3.46149 3.48551,-5.82083 2.62927,-4.224295 7.72417,-14.024395 9.03898,-17.386585 2.62956,-6.7242 3.68801,-10.02951 4.53287,-14.15521 0.2384,-1.16417 0.57688,-2.65245 0.75219,-3.30729 0.22928,-0.85655 0.32585,-5.40015 0.34412,-16.19318 0.0289,-17.06969 -0.0437,-16.45317 2.18327,-18.53624 1.69407,-1.58462 3.37773,-2.12913 6.20763,-2.00762 1.85002,0.0794 2.4726,0.23888 4.255869,1.08999 2.34908,1.12115 5.33929,3.03553 6.12261,3.91981 0.28589,0.32274 1.2937,1.09417 2.2396,1.7143 0.94588,0.62013 2.19603,1.62436 2.77811,2.23162 0.58209,0.60727 1.59412,1.3941 2.24896,1.74852 0.65484,0.35441 2.20266,1.54449 3.43958,2.6446 1.23693,1.10011 2.81871,2.33046 3.51508,2.73411 0.69637,0.40365 2.72043,2.0915 4.49791,3.75079 1.77749,1.65928 3.70929,3.33977 4.29287,3.73442 1.28653,0.87 5.94258,5.42675 7.4056,7.24765 0.58209,0.72447 1.89178,2.41891 2.91042,3.76542 1.01864,1.3465 2.59755,3.28619 3.50868,4.31042 0.91111,1.02423 1.97269,2.41696 2.35905,3.09495 0.38638,0.678 0.91307,1.47085 1.17044,1.7619 0.66501,0.75201 1.72731,2.2479 2.24477,3.16103 0.24305,0.42888 0.99226,1.45368 1.66491,2.27733 0.67264,0.82365 1.43088,1.84197 1.685,2.26293 0.2541,0.42095 0.78987,1.25729 1.19061,1.85853 0.40075,0.60124 1.18924,1.79187 1.75221,2.64584 0.56295,0.85397 1.39941,2.02892 1.85876,2.611 0.9583,1.21432 2.44079,3.63171 3.40744,5.55625 0.36546,0.72761 0.92898,1.56104 1.25227,1.85209 0.3233,0.29104 0.84857,1.06852 1.16727,1.72773 0.62006,1.28254 3.10799,5.708395 5.87044,10.443105 1.60424,2.74958 2.68989,4.87085 3.83938,7.50188 0.40981,0.93803 0.58879,1.11039 0.96394,0.92838 0.25336,-0.12293 4.80645,-0.28485 10.11796,-0.35981 6.85864,-0.0968 9.87315,-0.23166 10.40212,-0.46536 0.5014,-0.22151 2.31734,-0.33251 5.55625,-0.33965 4.55342,-0.01 4.76885,-0.0331 4.01768,-0.43023 -0.43656,-0.23081 -1.69558,-1.26784 -2.79781,-2.30451 -1.10222,-1.03668 -2.82157,-2.36112 -3.82077,-2.9432 -3.67522,-2.14099 -5.12386,-4.00753 -5.35615,-6.90125 -0.45487,-5.666925 5.16906,-9.641785 10.51952,-7.434935 0.80035,0.33011 3.1816,1.56241 5.29166,2.73843 2.11006,1.176025 4.58651,2.515145 5.50325,2.975825 1.51286,0.76026 4.60408,2.607 10.53303,6.29263 1.18011,0.73359 2.9065,1.91947 3.83646,2.63529 1.59119,1.22481 3.53202,2.47213 3.8466,2.47213 0.0777,0 0.1006,-16.668765 0.051,-37.041695 l -0.0901,-37.0417 7.47449,3e-5 7.47446,3e-5 v 79.242715 79.24271 H 244.246 c -1.21348,0 -4.54723,-0.0784 -7.4083,-0.17422 l -5.20193,-0.17422 v -30.96044 -30.96045 l -0.59531,0.51698 c -1.4233,1.23602 -3.45539,2.43237 -8.60184,5.06414 -4.37821,2.23893 -6.06064,2.95527 -8.32437,3.54436 -1.56043,0.40607 -3.28684,0.96597 -3.83647,1.24421 -0.54961,0.27824 -1.41602,0.59462 -1.92535,0.70307 -0.50933,0.10845 -1.52135,0.50936 -2.24896,0.89092 -1.15734,0.60689 -1.63753,0.69379 -3.83645,0.69427 -2.87584,5.3e-4 -3.93015,-0.40623 -5.59326,-2.15839 -1.30855,-1.37864 -1.84758,-2.53947 -2.00978,-4.32818 -0.37357,-4.11988 2.28243,-7.00871 8.39679,-9.13283 0.94588,-0.3286 2.19604,-0.81775 2.77812,-1.08699 l 1.05833,-0.48953 -4.03622,-0.073 c -2.96221,-0.0536 -4.45088,0.0344 -5.59444,0.33073 -1.24649,0.323 -3.33432,0.40378 -10.43595,0.40378 h -8.87774 l 0.24397,0.7276 c 0.26923,0.80299 0.65709,3.5572 1.07123,7.60677 0.1488,1.45521 0.38383,3.15356 0.52226,3.77411 0.13843,0.62055 0.25169,1.5778 0.25169,2.12722 0,0.54942 0.17858,1.68462 0.39687,2.52266 0.21827,0.83804 0.40036,1.90485 0.4046,2.37069 0.004,0.46584 0.26057,2.15668 0.56958,3.7574 0.75742,3.92344 1.00725,16.02189 0.38246,18.52084 -0.21831,0.87312 -0.45321,2.09735 -0.52202,2.7205 -0.0688,0.62316 -0.56098,2.29003 -1.09371,3.70417 -0.53275,1.41414 -1.14552,3.04741 -1.3617,3.62949 -0.21618,0.58209 -1.01151,2.29557 -1.76739,3.80774 -1.6461,3.29308 -4.52448,6.76769 -6.61506,7.98526 -0.75561,0.44008 -2.08822,1.26155 -2.96134,1.8255 -1.55968,1.00738 -12.21279,6.4178 -14.2875,7.25623 -0.5821,0.23523 -1.68334,0.54288 -2.44724,0.68366 -0.7639,0.14079 -1.77471,0.45548 -2.24625,0.69933 -0.56543,0.2924 -1.9843,0.5226 -4.16734,0.67612 -1.8205,0.12803 -3.97202,0.34834 -4.78114,0.48958 -1.45796,0.25449 -7.72544,0.36474 -7.95033,0.13985 z m 7.96624,-14.95407 c 1.92541,-0.1428 3.74001,-0.42635 4.34291,-0.67862 0.56959,-0.23834 1.75122,-0.54859 2.62584,-0.68944 1.07353,-0.17289 2.62832,-0.78912 4.78522,-1.89658 3.49388,-1.79395 3.57724,-1.83562 5.81221,-2.90569 0.84561,-0.40488 2.54015,-1.39644 3.76564,-2.20348 1.85684,-1.22284 2.34371,-1.69538 2.92173,-2.83575 1.21158,-2.39028 2.76638,-6.84693 3.20036,-9.17339 0.52382,-2.80802 0.71824,-8.38911 0.35947,-10.31896 -0.14879,-0.80036 -0.46333,-2.88396 -0.69897,-4.63021 -0.23564,-1.74625 -0.71778,-4.66992 -1.07142,-6.49704 -0.35364,-1.82713 -0.64538,-4.02979 -0.6483,-4.8948 -0.003,-0.86501 -0.12417,-2.34665 -0.26941,-3.29253 -0.14524,-0.94589 -0.3337,-2.31511 -0.41879,-3.04271 -0.0851,-0.7276 -0.38562,-2.12659 -0.66784,-3.10885 l -0.51313,-1.78594 -1.90703,0.006 c -1.04886,0.004 -2.38328,0.12604 -2.96536,0.27239 -0.58208,0.14634 -1.89176,0.37634 -2.91042,0.51111 -2.33523,0.30896 -7.03569,1.47456 -8.59896,2.13232 -0.65483,0.27554 -1.6714,0.62154 -2.25902,0.7689 -0.603,0.1512 -1.67853,0.7887 -2.46901,1.46344 -0.77033,0.65753 -1.51502,1.19551 -1.6549,1.19551 -0.13988,0 -0.81476,0.51469 -1.49975,1.14378 -0.685,0.62907 -1.68075,1.40579 -2.21279,1.72603 -1.22806,0.73915 -6.96023,6.66752 -7.5345,7.79237 -0.23789,0.46596 -0.86308,1.34538 -1.38929,1.95426 -3.99604,4.62376 -6.9864,9.66428 -8.21191,13.8419 -0.32017,1.0914 -0.81305,2.65144 -1.09527,3.46675 -0.41494,1.19869 -0.51349,2.21135 -0.51495,5.29166 -0.002,3.41848 0.073,4.04943 0.72761,6.14985 0.66,2.1178 0.88865,2.50432 2.40253,4.0614 1.43678,1.47776 2.14693,1.94632 5.02709,3.31697 4.66696,2.22096 8.13823,3.43297 9.30709,3.2496 0.50931,-0.0799 2.41431,-0.25566 4.23332,-0.39057 z"
       id="path847" />
  </g>
</svg>
