<?xml version="1.0" encoding="UTF-8" standalone="no"?>
<svg
   xmlns:dc="http://purl.org/dc/elements/1.1/"
   xmlns:cc="http://creativecommons.org/ns#"
   xmlns:rdf="http://www.w3.org/1999/02/22-rdf-syntax-ns#"
   xmlns:svg="http://www.w3.org/2000/svg"
   xmlns="http://www.w3.org/2000/svg"
   xmlns:sodipodi="http://sodipodi.sourceforge.net/DTD/sodipodi-0.dtd"
   xmlns:inkscape="http://www.inkscape.org/namespaces/inkscape"
   sodipodi:docname="logo_simplify.svg"
   inkscape:version="1.0 (4035a4fb49, 2020-05-01)"
   id="svg864"
   version="1.1"
   viewBox="0 0 210 297"
   height="297mm"
   width="210mm">
  <defs
     id="defs858" />
  <sodipodi:namedview
     inkscape:window-maximized="0"
     inkscape:window-y="0"
     inkscape:window-x="52"
     inkscape:window-height="1040"
     inkscape:window-width="1577"
     showgrid="false"
     inkscape:document-rotation="0"
     inkscape:current-layer="layer1"
     inkscape:document-units="mm"
     inkscape:cy="560"
     inkscape:cx="400"
     inkscape:zoom="0.35"
     inkscape:pageshadow="2"
     inkscape:pageopacity="0.0"
     borderopacity="1.0"
     bordercolor="#666666"
     pagecolor="#ffffff"
     id="base" />
  <metadata
     id="metadata861">
    <rdf:RDF>
      <cc:Work
         rdf:about="">
        <dc:format>image/svg+xml</dc:format>
        <dc:type
           rdf:resource="http://purl.org/dc/dcmitype/StillImage" />
        <dc:title></dc:title>
      </cc:Work>
    </rdf:RDF>
  </metadata>
  <g
     id="layer1"
     inkscape:groupmode="layer"
     inkscape:label="Calque 1">
    <path
       style="fill:#000000;stroke-width:0.264583"
       d="m 130.27142,223.15826 c -0.0643,-0.0643 -0.88783,-0.24045 -1.83004,-0.39139 -1.98926,-0.3187 -3.28933,-0.85826 -10.10432,-4.19353 l -5.01202,-2.45289 -3.9857,-3.8971 c -3.56329,-3.48409 -4.08302,-4.10742 -4.90399,-5.88148 -0.50506,-1.09141 -1.25922,-3.23453 -1.67593,-4.7625 -0.74965,-2.74884 -0.75763,-2.85623 -0.75738,-10.18646 2.6e-4,-7.33193 0.007,-7.42471 0.67002,-8.99583 0.36837,-0.87313 0.8953,-2.42094 1.17097,-3.43959 1.08685,-4.01608 2.62075,-7.22765 5.53875,-11.59666 1.27054,-1.90232 2.16578,-3.24804 3.08299,-4.63428 1.77834,-2.68773 10.58628,-12.55031 12.17665,-13.63464 1.10927,-0.75631 3.25683,-2.41887 4.99741,-3.86879 3.10752,-2.58861 6.09802,-4.59903 7.51957,-5.05517 0.52084,-0.16713 1.65123,-0.59615 2.51199,-0.95338 0.86076,-0.35722 2.28951,-0.76351 3.175,-0.90285 0.88549,-0.13933 2.62201,-0.5622 3.85894,-0.93971 1.23693,-0.37751 3.0824,-0.78759 4.10104,-0.9113 1.01865,-0.1237 2.71263,-0.37566 3.76441,-0.5599 l 1.91232,-0.33498 -1.43322,-2.51355 c -2.87727,-5.04606 -2.62894,-4.6379 -4.84431,-7.96204 -0.33043,-0.49582 -0.67348,-1.19915 -0.76232,-1.56296 -0.0889,-0.3638 -0.37351,-0.89958 -0.63259,-1.19062 -0.25909,-0.29104 -1.06595,-1.62821 -1.79303,-2.97148 -0.72708,-1.34327 -1.57741,-2.77202 -1.88962,-3.175 -0.72577,-0.93678 -5.33739,-7.84908 -6.29505,-9.43556 -0.2541,-0.42096 -1.00253,-1.43299 -1.66317,-2.24896 -0.66065,-0.81597 -1.76957,-2.34445 -2.46427,-3.39662 -0.6947,-1.05218 -1.3632,-1.974913 -1.48556,-2.050534 -0.12235,-0.07562 -0.59041,-0.789458 -1.04013,-1.586312 -0.44971,-0.796854 -1.56738,-2.255367 -2.48372,-3.241138 -0.91633,-0.985774 -1.88568,-2.140349 -2.15411,-2.565725 -0.92527,-1.466236 -4.17816,-5.444297 -4.45184,-5.444297 -0.15086,0 -1.83456,-1.529337 -3.74154,-3.398528 -4.38639,-4.29945 -5.933,-5.696061 -6.81779,-6.156569 -0.38759,-0.201728 -1.9836,-1.438341 -3.5467,-2.748028 -1.56309,-1.309688 -3.56769,-2.836355 -4.45466,-3.392597 -0.88698,-0.556239 -1.98759,-1.371589 -2.4458,-1.811885 l -0.83312,-0.800542 -0.11653,8.823347 c -0.114,8.632066 -0.17784,9.370237 -1.145993,13.251119 -0.20819,0.834549 -0.37649,1.787049 -0.374,2.116667 0.006,0.854911 -2.25702,8.115682 -3.40364,10.918062 -0.2977,0.7276 -0.79619,2.03729 -1.10775,2.91041 -1.10824,3.10577 -7.69679,15.94877 -10.51931,20.50521 -1.57752,2.54661 -3.31242,5.55526 -3.85533,6.68589 -0.5429,1.13062 -1.50102,2.63431 -2.12914,3.34155 -0.62812,0.70722 -1.89748,2.28248 -2.8208,3.50057 -0.92332,1.21808 -4.12452,4.66048 -7.11377,7.64976 -6.25609,6.25614 -13.77904,14.12125 -14.16625,14.81055 -0.14552,0.25904 -5.08662,5.1981 -10.98021,10.97569 -10.08226,9.88379 -14.56876,13.9523 -17.24428,15.63767 -1.55623,0.9803 -7.27714,5.27195 -8.42031,6.31663 -0.50933,0.46545 -1.75947,1.36019 -2.77813,1.9883 -1.01864,0.62812 -2.50693,1.64323 -3.30728,2.2558 -0.80036,0.61258 -2.4077199,1.61366 -3.5718799,2.22464 -3.05588,1.60379 -4.52853,2.47997 -5.21609,3.10343 -0.33261,0.3016 -1.48136,1.00298 -2.55276996,1.55863 -1.07142,0.55564 -2.48021004,1.45001 -3.13062004,1.98748 -0.65042,0.53748 -2.02783,1.43842 -3.06091,2.00209 -1.03308,0.56367 -2.54134,1.53912 -3.35168,2.16766 -0.81035,0.62854 -3.9736601,2.41374 -7.0296001,3.96711 l -5.55625,2.8243 -2.38125,-2.5e-4 c -1.93576,-2.1e-4 -2.57925,-0.10708 -3.43958,-0.57125 -1.26568,-0.68287 -2.81163,-2.2574 -3.43942,-3.50301 -0.69952,-1.38796 -0.81169,-3.66822 -0.26187,-5.32359 0.80213,-2.41499 1.96703,-3.3806 7.09514,-5.8813 2.49999,-1.2191 5.19987,-2.67837 5.99974,-3.24282 2.53875,-1.79152 4.33107,-2.94614 5.48186,-3.53144 0.61442,-0.31249 1.51529,-0.91777 2.00194,-1.34505 0.48665,-0.42729 1.8294101,-1.28204 2.9839201,-1.89945 1.1545,-0.61741 2.53355,-1.48747 3.06455,-1.93347 0.53098,-0.446 2.31693,-1.51616 3.96875004,-2.37813 1.65181996,-0.86196 3.65814996,-2.06391 4.45851996,-2.67099 0.80035,-0.60707 2.28864,-1.61768 3.30728,-2.2458 1.01866,-0.62812 2.2688,-1.52286 2.77813,-1.9883 1.1587299,-1.05892 6.8725799,-5.34166 8.4650399,-6.34488 1.42185,-0.89572 3.56183,-2.68143 5.57011,-4.64796 0.80707,-0.79031 2.51103,-2.3299 3.78653,-3.42131 2.68114,-2.29415 20.33814,-20.21796 23.18485,-23.53518 1.05548,-1.22993 4.04719,-4.36096 6.64826,-6.95785 6.01032,-6.00069 8.73519,-9.33667 10.81382,-13.23914 0.44854,-0.84212 2.01704,-3.46149 3.48552,-5.82083 2.62927,-4.22429 7.72416,-14.02439 9.03898,-17.38658 2.62956,-6.7242 3.68801,-10.029508 4.53287,-14.155211 0.2384,-1.164167 0.57688,-2.652448 0.75218,-3.307292 0.22929,-0.856551 0.32585,-5.400148 0.34413,-16.193175 0.0289,-17.0697 -0.0437,-16.45317 2.18326,-18.53624 1.69408,-1.58462 3.37774,-2.12914 6.20763,-2.00763 1.85003,0.0794 2.4726,0.23889 4.25588,1.09 2.349073,1.12114 5.339283,3.03553 6.122603,3.91981 0.28589,0.32274 1.29371,1.09417 2.2396,1.71429 0.94588,0.62013 2.19604,1.62436 2.77812,2.23163 0.58209,0.60726 1.59412,1.3941 2.24896,1.74851 0.65484,0.35442 2.20266,1.544492 3.43958,2.644606 1.23693,1.100114 2.81871,2.330463 3.51507,2.734109 0.69637,0.403648 2.72043,2.091502 4.49792,3.750789 1.77749,1.659287 3.70929,3.339777 4.29287,3.734424 1.28652,0.870001 5.94257,5.426746 7.4056,7.247648 0.58209,0.724474 1.89177,2.418908 2.91042,3.765417 1.01864,1.346507 2.59755,3.286199 3.50867,4.310425 0.91112,1.024226 1.9727,2.416956 2.35906,3.094953 0.38637,0.678 0.91307,1.470851 1.17044,1.761893 0.66501,0.752014 1.7273,2.247905 2.24477,3.16103 0.24305,0.428879 0.99225,1.453679 1.6649,2.277332 0.67265,0.823653 1.43089,1.841971 1.685,2.262928 0.2541,0.420957 0.78988,1.257294 1.19062,1.858534 0.40074,0.60124 1.18923,1.79187 1.7522,2.64584 0.56296,0.85397 1.39941,2.02892 1.85877,2.611 0.9583,1.21432 2.44079,3.63171 3.40744,5.55625 0.36546,0.72761 0.92898,1.56104 1.25227,1.85209 0.32329,0.29104 0.84856,1.06852 1.16726,1.72773 0.62006,1.28254 3.10799,5.70839 5.87045,10.4431 1.60424,2.74958 2.68988,4.87085 3.83937,7.50189 0.40982,0.93802 0.58879,1.11038 0.96394,0.92837 0.25337,-0.12293 4.80645,-0.28485 10.11796,-0.35981 6.85865,-0.0968 9.87314,-0.23166 10.40212,-0.46536 0.5014,-0.2215 2.31734,-0.33251 5.55625,-0.33964 4.55342,-0.01 4.76886,-0.0331 4.01768,-0.43025 -0.43657,-0.2308 -1.69558,-1.26783 -2.7978,-2.30451 -1.10223,-1.03667 -2.82158,-2.36111 -3.82078,-2.94319 -3.67521,-2.14099 -5.12386,-4.00753 -5.35614,-6.90125 -0.45489,-5.66692 5.16904,-9.64178 10.51951,-7.43493 0.80036,0.33011 3.18161,1.56241 5.29166,2.73843 2.11006,1.17602 4.58651,2.51514 5.50324,2.97582 0.91673,0.46068 3.23845,1.80219 5.15938,2.98113 1.92092,1.17895 4.2665,2.61861 5.21238,3.19925 0.94589,0.58065 2.6723,1.75681 3.83646,2.61369 1.16417,0.85688 2.89058,2.04878 3.83646,2.64866 0.94589,0.59988 2.43417,1.57874 3.30728,2.17525 0.87313,0.5965 2.27386,1.45143 3.11272,1.89984 0.83886,0.44841 2.46758,1.67036 3.61939,2.71546 2.58776,2.34798 3.31412,3.89731 3.12362,6.66263 -0.13626,1.97798 -0.65013,3.14797 -2.01353,4.58437 -1.40208,1.47716 -2.73886,2.06834 -5.18853,2.29457 -2.2279,0.20574 -4.55808,1.03204 -6.05496,2.14712 -2.36698,1.76324 -3.93674,2.68442 -8.90182,5.22387 -4.31838,2.20868 -6.00226,2.92464 -8.2611,3.51246 -1.56043,0.40607 -3.28684,0.96596 -3.83646,1.2442 -0.54962,0.27824 -1.41604,0.59462 -1.92536,0.70307 -0.50932,0.10845 -1.52135,0.50936 -2.24896,0.89092 -1.15733,0.6069 -1.63753,0.6938 -3.83646,0.69427 -2.87584,5.3e-4 -3.93014,-0.40623 -5.59324,-2.15839 -1.30857,-1.37864 -1.84759,-2.53947 -2.00979,-4.32818 -0.37357,-4.11988 2.28244,-7.00871 8.39678,-9.13283 0.94589,-0.3286 2.19605,-0.81775 2.77813,-1.08699 l 1.05833,-0.48952 -4.03623,-0.073 c -2.96219,-0.0536 -4.45086,0.0344 -5.59444,0.33072 -1.24647,0.323 -3.33431,0.40378 -10.43594,0.40378 h -8.87774 l 0.24397,0.7276 c 0.26923,0.80299 0.65709,3.5572 1.07122,7.60677 0.14882,1.45521 0.38384,3.15356 0.52227,3.77411 0.13842,0.62055 0.25168,1.5778 0.25168,2.12723 0,0.54942 0.1786,1.68461 0.39688,2.52265 0.21828,0.83804 0.40035,1.90485 0.4046,2.37069 0.004,0.46585 0.26057,2.15668 0.56958,3.75741 0.75741,3.92343 1.00725,16.02188 0.38246,18.52083 -0.2183,0.87312 -0.45321,2.09735 -0.52201,2.72051 -0.0688,0.62315 -0.56099,2.29002 -1.09373,3.70416 -0.53274,1.41414 -1.1455,3.04741 -1.36168,3.6295 -0.21619,0.58208 -1.01151,2.29556 -1.76739,3.80773 -1.6461,3.29309 -4.52449,6.7677 -6.61506,7.98526 -0.75562,0.44008 -2.08823,1.26156 -2.96135,1.8255 -1.55967,1.00738 -12.21278,6.4178 -14.2875,7.25623 -0.58209,0.23523 -1.68334,0.54287 -2.44724,0.68366 -0.76389,0.14079 -1.7747,0.45548 -2.24624,0.69932 -0.56544,0.29241 -1.98431,0.52261 -4.16735,0.67613 -1.8205,0.12803 -3.97202,0.34834 -4.78114,0.48957 -1.45795,0.25449 -7.72543,0.36475 -7.95032,0.13986 z m 7.96624,-14.95407 c 1.92541,-0.1428 3.74001,-0.42634 4.34291,-0.67862 0.56959,-0.23834 1.75121,-0.54859 2.62583,-0.68944 1.07354,-0.17289 2.62833,-0.78912 4.78522,-1.89658 3.49389,-1.79395 3.57725,-1.83562 5.81221,-2.90569 0.84562,-0.40488 2.54016,-1.39644 3.76564,-2.20348 1.85685,-1.22283 2.34372,-1.69538 2.92174,-2.83574 1.21157,-2.39029 2.76638,-6.84694 3.20036,-9.17339 0.52381,-2.80803 0.71824,-8.38912 0.35947,-10.31897 -0.14879,-0.80036 -0.46333,-2.88395 -0.69897,-4.6302 -0.23565,-1.74625 -0.71778,-4.66993 -1.07142,-6.49705 -0.35364,-1.82713 -0.64538,-4.02978 -0.64831,-4.89479 -0.003,-0.86501 -0.12416,-2.34665 -0.2694,-3.29254 -0.14525,-0.94589 -0.3337,-2.3151 -0.41879,-3.04271 -0.0851,-0.7276 -0.38562,-2.12659 -0.66784,-3.10885 l -0.51314,-1.78594 -1.90702,0.006 c -1.04887,0.004 -2.38328,0.12605 -2.96536,0.27239 -0.58208,0.14634 -1.89177,0.37635 -2.91042,0.51113 -2.33523,0.30895 -7.0357,1.47454 -8.59896,2.13231 -0.65484,0.27553 -1.6714,0.62153 -2.25903,0.76889 -0.60299,0.15121 -1.67852,0.7887 -2.469,1.46344 -0.77033,0.65753 -1.51503,1.19552 -1.65491,1.19552 -0.13987,0 -0.81476,0.5147 -1.49975,1.14378 -0.68499,0.62907 -1.68075,1.40578 -2.21279,1.72602 -1.22805,0.73917 -6.96023,6.66753 -7.5345,7.79237 -0.23788,0.46597 -0.86307,1.34538 -1.38929,1.95427 -3.99603,4.62376 -6.98639,9.66427 -8.21191,13.84189 -0.32017,1.09141 -0.81304,2.65144 -1.09526,3.46676 -0.41494,1.19868 -0.51349,2.21135 -0.51495,5.29166 -0.002,3.41847 0.073,4.04942 0.7276,6.14984 0.66,2.1178 0.88865,2.50433 2.40254,4.0614 1.43677,1.47777 2.14692,1.94632 5.02709,3.31697 4.66695,2.22096 8.13822,3.43298 9.30708,3.2496 0.50932,-0.0799 2.41432,-0.25566 4.23333,-0.39056 z"
       id="path847" />
  </g>
</svg>
